<svg id="Layer_1" data-name="Layer 1" xmlns="http://www.w3.org/2000/svg" viewBox="0 0 480 480"><defs><style>.cls-1{fill:#8e6e4a;}.cls-2{fill:#a27d55;}.cls-3{fill:#d0ac91;}.cls-4{fill:#e6bd9f;}.cls-5{fill:#524130;}.cls-6{fill:#fff;}.cls-7{fill:#cccccb;}.cls-22,.cls-26,.cls-7,.cls-9{opacity:0.5;}.cls-10,.cls-11,.cls-12,.cls-16,.cls-8,.cls-9{fill:none;stroke-linecap:round;stroke-linejoin:round;}.cls-11,.cls-12,.cls-8,.cls-9{stroke:#a27d55;}.cls-10{stroke:#8e6e4a;}.cls-10,.cls-11{stroke-width:25px;}.cls-12{stroke-width:15px;}.cls-13{fill:#c7354b;}.cls-14{fill:#6ec06d;}.cls-15{fill:#a7d386;}.cls-16{stroke:#c6e9ef;}.cls-17{fill:#e9a041;}.cls-18{fill:#f58977;}.cls-19{fill:#f26d60;}.cls-20{fill:#ffebaf;}.cls-21{fill:#ffc907;}.cls-22{fill:#ffe077;}.cls-23{fill:#ffe075;}.cls-24{fill:#8a603d;}.cls-25{fill:#8c603a;}.cls-26{fill:#764c28;}</style></defs><title>monkey1</title><path class="cls-1" d="M177.7,245.05c-6.64,0-12.85-1.66-18.31-3.12-.76-.21-1.51-.41-2.27-.6a12,12,0,0,1,6.07-23.22c.8.2,1.6.42,2.4.63,8.21,2.2,13.06,3.33,17.32,1.06,4.64-2.48,11.85-10.54,19.89-34.85a12,12,0,0,1,22.79,7.54c-8.69,26.28-18.66,41.68-31.37,48.47A34.25,34.25,0,0,1,177.7,245.05Z"/><path class="cls-1" d="M174.4,367a9.86,9.86,0,0,1-2.72-.38,10,10,0,0,1-6.91-12.33c6.17-21.94-3-34.28-11.59-42.58A10,10,0,0,1,167,297.33c18,17.34,23.75,38.34,17,62.42A10,10,0,0,1,174.4,367Z"/><path class="cls-2" d="M108.2,265.77a11.92,11.92,0,0,1-5.19-1.19c-20.42-9.81-51.27-24.63-55-63.5a12,12,0,1,1,23.89-2.3c2.27,23.53,19.38,33.53,41.51,44.17a12,12,0,0,1-5.2,22.82Z"/><path class="cls-2" d="M114.31,211.69c-1,12.62-8,31.88-17.61,64.43S120,335.24,142.87,326.6,180.4,301,176.75,274.79s-20.6-71.41-20.6-71.41Z"/><path class="cls-3" d="M135,214.74c-1.13,0-3,2-3.78,2.69A35,35,0,0,0,123.46,228c-6.59,13.25-7.78,30.13-5,44.52a50.93,50.93,0,0,0,6.71,17.67c2.54,4,6,7.81,10.49,9.28,6.12,2,13-.86,17.32-5.67s6.25-11.22,7.22-17.58c2.27-14.84,3.07-29.17-3-43.23a66.46,66.46,0,0,0-11.35-18.41Z"/><circle class="cls-2" cx="167.97" cy="178.28" r="19"/><circle class="cls-3" cx="166.97" cy="178.35" r="15"/><circle class="cls-2" cx="94.13" cy="183.09" r="19"/><circle class="cls-3" cx="95.12" cy="183.02" r="15"/><path class="cls-4" d="M160.09,207.22a37.14,37.14,0,0,1-5.32,5.67l-.07.07a35.52,35.52,0,0,1-45.5.93l-.14-.11c-.67-.54-1.33-1.09-2-1.69h0a39.64,39.64,0,0,1-12.47-23.7c-.16-1.09-.28-2.19-.35-3.3a39.91,39.91,0,0,1,8.35-27.38h0a35.63,35.63,0,0,1,51-5.87h0a39.63,39.63,0,0,1,14.14,25c.17,1.13.29,2.28.37,3.44A40,40,0,0,1,160.09,207.22Z"/><ellipse class="cls-5" cx="110.3" cy="177.52" rx="1" ry="2" transform="translate(-11.29 7.53) rotate(-3.72)"/><ellipse class="cls-5" cx="150.15" cy="173.93" rx="1" ry="2" transform="translate(-10.97 10.11) rotate(-3.72)"/><path class="cls-2" d="M144,205l-.29.08c-6.16,1.41-13.61-2-15.21-2.8,0-.09,0-.18,0-.27a51.56,51.56,0,0,0,9-4.68,18.06,18.06,0,0,1,6.53-2.77C151.19,193.46,149.43,203.4,144,205Z"/><path class="cls-6" d="M144,194.54V205l-.29.08c-6.16,1.41-13.61-2-15.21-2.8,0-.08,0-.17,0-.25v0c.72-.26,1.49-.58,2.33-1q.28-.12.57-.27c.62-.3,1.27-.63,2-1q1.89-1,4.15-2.43A18.06,18.06,0,0,1,144,194.54Z"/><path class="cls-7" d="M144,199.74V201H130.78q.28-.12.57-.27c.62-.3,1.27-.63,2-1Z"/><path class="cls-8" d="M115.5,199.22c3.4,3,7.4,7.14,22-1.91s13.19,6.15,6.24,7.74-15.53-3-15.53-3"/><path class="cls-2" d="M115.19,379a10,10,0,0,1-8.42-15.39c9.2-14.4,6.6-36.24,3.84-51.42a10,10,0,1,1,19.68-3.58c3.36,18.5,6.33,45.43-6.67,65.77A10,10,0,0,1,115.19,379Z"/><path class="cls-2" d="M58.27,352.16c-7.4,0-16.67-3.29-27.16-14.11-13.57-14-16.56-32.88-7.8-49.26C31.73,273,48.48,264,64,266.84c25.32,4.63,47.89,22.45,48.84,23.21a7.5,7.5,0,1,1-9.35,11.72c-.2-.15-20.64-16.23-42.19-20.18-9.07-1.66-19.5,4.34-24.81,14.27-2.71,5.08-7.63,18.35,5.36,31.75,5.31,5.49,13.08,11.48,19.92,8.88,5.88-2.23,9.22-9.49,9.32-11.6,0-3.55-1.62-6.43-3.19-7.16s-4.1.33-7,2.75a7.77,7.77,0,0,1-10.6-.44A7.49,7.49,0,0,1,51,309.23c10.55-8.94,19.11-7,23.26-5.11,7.22,3.35,11.88,11.51,11.88,20.79,0,7.33-6.58,20.59-18.48,25.4A24.81,24.81,0,0,1,58.27,352.16Z"/><path class="cls-2" d="M160.09,207.22c4-7.09,4.77-16.3,3.46-24.9a33.16,33.16,0,0,0-3.81-11.2c-.39-.77-.78-1.55-1.18-2.31a17.94,17.94,0,0,0-28-5.4,1.33,1.33,0,0,1-1.7,0A18,18,0,0,0,108.7,162a18,18,0,0,0-7.79,9.2c-.43,1.14-.85,2.3-1.32,3.42a33.25,33.25,0,0,0-1.94,18.77c1.13,6.14,5.13,13.57,9.43,18.69a39.64,39.64,0,0,1-12.47-23.7c-.16-1.09-.28-2.19-.35-3.3a39.91,39.91,0,0,1,8.35-27.38h0a35.63,35.63,0,0,1,51-5.87h0a39.63,39.63,0,0,1,14.14,25c.17,1.13.29,2.28.37,3.44A40,40,0,0,1,160.09,207.22Z"/><path class="cls-9" d="M123.92,186.32s-2.49.2-2.49,2.33,2.64,2.64,2.64,2.64"/><path class="cls-9" d="M137.22,184.93s2.48-.19,2.81,1.93-2.2,3-2.2,3"/><line class="cls-9" x1="124.37" y1="187.91" x2="126.36" y2="189.14"/><line class="cls-9" x1="136.99" y1="186.71" x2="135.45" y2="188.48"/><path class="cls-10" d="M315,281.3c-2.49,14.67-3.21,42.95-19.18,59"/><path class="cls-11" d="M375.23,203.7c4.73,33.34-9.09,63.39-33.65,73.87"/><circle class="cls-2" cx="278.61" cy="234.07" r="16.08"/><circle class="cls-3" cx="278.61" cy="234.07" r="12.97"/><path class="cls-11" d="M402.52,300.41c2.38,26.38.92,42.28,24.39,59.26"/><path class="cls-10" d="M373.33,323.59c-2.77,21.33,4.17,40.72,16.26,49"/><path class="cls-2" d="M412.42,302.23c0,5.37-11.58,36.2-43.22,39.2A60.29,60.29,0,0,1,346.48,339c-43.59-12.68-49.89-51.79-50.69-81.89-.07-2.74-.09-5.41-.1-8,0,0,28.47-6.15,37.46,2.53a8.64,8.64,0,0,1,1.38,1.7,19.1,19.1,0,0,0,5.22,5c13.91,9.9,48.45,20.13,56.63,22.7C409.37,285.18,412.42,295.7,412.42,302.23Z"/><path class="cls-3" d="M389.44,323c-3.82,8.55-12.31,14.66-20.24,18.43A60.29,60.29,0,0,1,346.48,339c-43.59-12.68-49.89-51.79-50.69-81.89l37.36-5.44a8.64,8.64,0,0,1,1.38,1.7,19.1,19.1,0,0,0,5.22,5c4.39,9.88,10.31,17.53,25.12,27.61C383.1,298.43,396.24,307.77,389.44,323Z"/><circle class="cls-2" cx="340.58" cy="225.66" r="15.82"/><circle class="cls-3" cx="340.58" cy="225.66" r="12.51"/><path class="cls-4" d="M341.9,251.84a34.49,34.49,0,0,1-3.64,6,.59.59,0,0,1,0,.08A33.11,33.11,0,0,1,297,267.89l-.15-.07q-.92-.45-1.8-1a37,37,0,0,1-16.43-19.29c-.37-1-.7-1.95-1-2.94A37.26,37.26,0,0,1,279.75,218h0a33.62,33.62,0,0,1,20.94-17.87A33.25,33.25,0,0,1,325,202.51h0a37,37,0,0,1,17.87,20q.57,1.5,1,3.06A37.28,37.28,0,0,1,341.9,251.84Z"/><path class="cls-2" d="M341.9,251.84c2.3-7.29,1.16-15.91-1.77-23.54a31.1,31.1,0,0,0-5.69-9.44c-.52-.61-1-1.25-1.54-1.86a16.7,16.7,0,0,0-26.53.66,1.27,1.27,0,0,1-1.55.39,16.57,16.57,0,0,0-13.81-.39,15.9,15.9,0,0,0-4.82,3.08,16.73,16.73,0,0,0-5.25,9.92c-.17,1.13-.33,2.26-.53,3.38a31,31,0,0,0,2,17.46C284.68,257,290,263.08,295,266.86a37,37,0,0,1-16.43-19.29c-.37-1-.7-1.95-1-2.94A37.26,37.26,0,0,1,279.75,218h0a33.62,33.62,0,0,1,20.94-17.87A33.25,33.25,0,0,1,325,202.51h0a37,37,0,0,1,17.87,20q.57,1.5,1,3.06A37.28,37.28,0,0,1,341.9,251.84Z"/><path class="cls-12" d="M412.42,205.7c-3.74-20.38,16-43.35,35.75-22.8s-8.33,94.59-48.16,110"/><path class="cls-8" d="M295.69,261.35a13,13,0,0,1,7.48-4.13,34.45,34.45,0,0,0,3.51-.49,11.35,11.35,0,0,0,4.09-2.32c2.64-2.15,5.17-4.92,8.56-5.28,2.85-.3,7,1.53,8.58,4"/><ellipse class="cls-5" cx="292.45" cy="229.63" rx="1" ry="2" transform="translate(-14.29 19.47) rotate(-3.72)"/><ellipse class="cls-5" cx="322.19" cy="226.65" rx="1" ry="2" transform="translate(-14.03 21.39) rotate(-3.72)"/><path class="cls-9" d="M300.15,238.18c-1.92.06-3.36,4.63,0,5"/><path class="cls-9" d="M314.93,236.39c1.91-.24,4.06,4,.8,4.93"/><line class="cls-9" x1="300.15" y1="240.67" x2="302.54" y2="242.2"/><line class="cls-9" x1="315.43" y1="238.63" x2="313.54" y2="240.73"/><path class="cls-13" d="M77,400.47a17,17,0,0,0-16.17-6.37,9,9,0,0,0-2.38,17.4,8.91,8.91,0,0,0,4.65.52A9,9,0,1,0,77,400.47Z"/><path class="cls-14" d="M65.34,389.73a9.76,9.76,0,0,0,2.94,6.8,10.23,10.23,0,0,0-.52-13.8A9.76,9.76,0,0,0,65.34,389.73Z"/><path class="cls-14" d="M73.94,391.75a9.72,9.72,0,0,0-5.66,4.78A10.24,10.24,0,0,0,81.34,392,9.7,9.7,0,0,0,73.94,391.75Z"/><path class="cls-15" d="M243.21,365.45a15.52,15.52,0,0,0-12.44,9.89,8.26,8.26,0,1,0,15.23,6.4,8.27,8.27,0,1,0-2.79-16.29Z"/><path class="cls-14" d="M229.37,369.76a8.93,8.93,0,0,0,6.73.78,9.35,9.35,0,0,0-11.16-5.9A8.9,8.9,0,0,0,229.37,369.76Z"/><path class="cls-14" d="M234.9,363.88a8.92,8.92,0,0,0,1.2,6.66,9.34,9.34,0,0,0,2.42-12.39A8.91,8.91,0,0,0,234.9,363.88Z"/><path class="cls-16" d="M104.57,123.74s19.81-28.81,58.93-28.17"/><path class="cls-16" d="M131.87,118.42s11.43-9.78,24.88-9.37"/><circle class="cls-17" cx="358.01" cy="87.85" r="12.09"/><path class="cls-14" d="M367.27,73.92A10.92,10.92,0,0,0,361,79.28a11.45,11.45,0,0,0,14.6-5A10.86,10.86,0,0,0,367.27,73.92Z"/><path class="cls-8" d="M361.08,78.89s.85-6.54-1.82-10.75"/><path class="cls-16" d="M312.16,163s24.54-2.05,43.63,16.53"/><path class="cls-16" d="M334,176.25a28,28,0,0,1,17,8.7"/><path class="cls-14" d="M234.57,243.24a10.88,10.88,0,0,0-6.15,5.55,11.43,11.43,0,0,0,14.43-5.49A10.84,10.84,0,0,0,234.57,243.24Z"/><path class="cls-14" d="M223.13,247.77a10.91,10.91,0,0,0,8.12,1.65,11.41,11.41,0,0,0-13-8.34A10.83,10.83,0,0,0,223.13,247.77Z"/><path class="cls-18" d="M241,261.32c-2.72,3.77-11.1,7.31-11.1,7.31s-7.11-11.94-2.55-17.18c3.05-3.51,8-4.62,11.76-1.89A8.42,8.42,0,0,1,241,261.32Z"/><path class="cls-19" d="M234.58,256.2c0,4.65-4.72,12.43-4.72,12.43s-12.76-5.51-12.13-12.43c.42-4.63,3.77-8.42,8.42-8.42A8.43,8.43,0,0,1,234.58,256.2Z"/><path class="cls-16" d="M239.83,276.62s13.68,22.28,44,24.38"/><path class="cls-20" d="M278.84,145.58a5.4,5.4,0,0,0-.33,1.61,8.29,8.29,0,0,1-1.59,4.49c-1.12,1.35-2.88,1.61-4.58,2a13.84,13.84,0,0,0-1.44-1c-5.66-3.56-11.7-5.79-12.56-7.23a.53.53,0,0,1-.08-.46c.42-1.36,6-6.74,18.77-.38l1.07.55C278.35,145.29,278.6,145.43,278.84,145.58Z"/><path class="cls-21" d="M286.1,174.51l-2,3.7a10.41,10.41,0,0,1-.13,1.66c-.13.74-.4,1.43-.94,1.34a2.13,2.13,0,0,1-1.34-1.12h0c-.37-.68-.43-1.47.21-1.77h0l.8-2.87s-2.71-2.2-2.6-3.53-.49-12.36-7.8-18.21c1.5-.37,3.05-.62,4.16-1.6a3.42,3.42,0,0,0,.42-.43,7.77,7.77,0,0,0,1.38-3h0a8.56,8.56,0,0,0,.21-1.46,5.4,5.4,0,0,1,.33-1.61c.42.24.82.51,1.21.78C291.78,154.57,293.35,174.8,286.1,174.51Z"/><path class="cls-22" d="M277,144.61l-.32,3.73c-5.88-3.53-12.16-3.4-18.37-2.89a.53.53,0,0,1-.08-.46C258.68,143.63,264.29,138.25,277,144.61Z"/><path class="cls-23" d="M277.08,152.28s-7-2.77-8,2.32,3.82,8,4.19,8S270.84,153.87,277.08,152.28Z"/><path class="cls-23" d="M277.2,152.2a.25.25,0,0,1-.47.06c-.83-1.87-2.49-6.81,1.64-9.28,5.17-3.09,14.48,3.68,14.06,5.43s-7.49-1.87-10-1.63A6.2,6.2,0,0,0,277.2,152.2Z"/><path class="cls-20" d="M348.6,410.41a5.43,5.43,0,0,0-1.52-.63,8.25,8.25,0,0,1-4.11-2.4c-1.12-1.35-1.05-3.13-1.14-4.87a16.41,16.41,0,0,0,1.28-1.23c4.55-4.9,7.87-10.41,9.44-11a.59.59,0,0,1,.47,0c1.26.67,5.49,7.19-3.12,18.52l-.74.95C349,410,348.79,410.2,348.6,410.41Z"/><path class="cls-21" d="M318.83,412.15l-3.27-2.63a9.59,9.59,0,0,1-1.6-.43c-.71-.27-1.33-.66-1.15-1.18a2.13,2.13,0,0,1,1.35-1.11h0c.73-.24,1.51-.15,1.69.54h0l2.67,1.32s2.67-2.25,4-1.9,12.24,1.83,19.35-4.26c.08,1.54,0,3.11.79,4.38a4,4,0,0,0,.35.49,7.65,7.65,0,0,0,2.72,1.93h0a9.11,9.11,0,0,0,1.39.47,5.43,5.43,0,0,1,1.52.63c-.31.36-.65.71-1,1C337.36,421.45,317.19,419.22,318.83,412.15Z"/><path class="cls-22" d="M349.9,408.81l-3.61-1c4.56-5.11,5.61-11.31,6.26-17.5a.59.59,0,0,1,.47,0C354.28,391,358.51,397.48,349.9,408.81Z"/><path class="cls-23" d="M342.35,407.43s4-6.37-.79-8.29-8.59,2.26-8.6,2.64S342,401,342.35,407.43Z"/><path class="cls-23" d="M342.41,407.56a.25.25,0,0,1,0-.48c2-.46,7.15-1.17,8.81,3.35,2.07,5.65-6.32,13.54-8,12.8s3.24-7,3.46-9.5A6.2,6.2,0,0,0,342.41,407.56Z"/><path class="cls-24" d="M210.59,103.2A5.25,5.25,0,0,1,208.9,105a5,5,0,0,1-1.51.68,5.25,5.25,0,0,1-4-.52l-23.46-13.5a5.27,5.27,0,0,1,5.25-9.13L208.65,96A5.27,5.27,0,0,1,210.59,103.2Z"/><path class="cls-24" d="M211.1,94.33l0,0a2.64,2.64,0,0,1-1.6,1.21,2.67,2.67,0,0,1-2-.26l-21-12.11a3,3,0,0,1-.41-.29,2.68,2.68,0,0,1-.57-3.38A4.09,4.09,0,0,1,191,78L209.6,88.73A4.1,4.1,0,0,1,211.1,94.33Z"/><path class="cls-24" d="M210.86,85.84l-.09.16a3,3,0,0,1-4,1.08l-12.86-7.4a2.93,2.93,0,0,1-1.32-1.59h0a3,3,0,0,1,.23-2.44l.09-.15a5.06,5.06,0,0,1,6.91-1.87l9.21,5.3A5.07,5.07,0,0,1,210.86,85.84Z"/><path class="cls-25" d="M208.53,78.67,201,74.33c3.29.91,6-2.58,6-2.58,2.73,2.43,2.67,4.5,2.23,5.73A3.77,3.77,0,0,1,208.53,78.67Z"/><path class="cls-26" d="M211.08,94.37a2.64,2.64,0,0,1-1.6,1.21,2.67,2.67,0,0,1-2-.26l-20.83-12-.62-.41Z"/><path class="cls-26" d="M210.83,85.89l-.06.11a3,3,0,0,1-4,1.08l-12.86-7.4a2.93,2.93,0,0,1-1.32-1.59Z"/><path class="cls-26" d="M208.53,78.67l-5.85-3.37,6.55,2.18A3.77,3.77,0,0,1,208.53,78.67Z"/><path class="cls-26" d="M208.9,105a5,5,0,0,1-1.51.68,5.25,5.25,0,0,1-4-.52l-19.16-11Z"/><ellipse class="cls-6" cx="193.15" cy="83.18" rx="3.38" ry="1.96" transform="translate(24.71 209.09) rotate(-60.07)"/><ellipse cx="193.15" cy="83.18" rx="2.26" ry="1.31" transform="translate(24.71 209.09) rotate(-60.07)"/><ellipse class="cls-6" cx="204.08" cy="89.46" rx="3.38" ry="1.96" transform="translate(24.73 221.7) rotate(-60.07)"/><ellipse cx="204.08" cy="89.46" rx="2.26" ry="1.31" transform="translate(24.73 221.7) rotate(-60.07)"/><path class="cls-6" d="M200.13,95.36a1,1,0,0,1,.07,1.72c-1.83,1.17-5,.94-7.5-.49s-4.28-4.07-4.19-6.23a1,1,0,0,1,1.53-.8Z"/></svg>