<?xml version="1.0" encoding="utf-8"?>
<!-- Generator: Adobe Illustrator 22.0.1, SVG Export Plug-In . SVG Version: 6.00 Build 0)  -->
<svg version="1.1" id="OBJECTS" xmlns="http://www.w3.org/2000/svg" xmlns:xlink="http://www.w3.org/1999/xlink" x="0px" y="0px"
	 viewBox="0 0 500 424" style="enable-background:new 0 0 500 424;" xml:space="preserve">
<style type="text/css">
	.st0{opacity:0.3;fill:#D0E1FB;enable-background:new    ;}
	.st1{fill:#FFFFFF;}
	.st2{fill:#D0E1FB;}
	.st3{fill:#636FA0;}
	.st4{fill:#B5CCF8;}
	.st5{fill:#4463AD;}
	.st6{enable-background:new    ;}
</style>
<g>
	<path class="st0" d="M58,148.2c0,0,4.2-46.2,61.5-52.4c34.1-14.6,135.6-50.3,207.5,5.8c93.6,65.3,122.3,74.9,97.7,136.4
		s-29.1,95.2-126.8,89.4s-274,48.2-248.3-133.9L58,148.2z"/>
	<path class="st1" d="M191.6,228.7h-83.3c1.5,0,2.7-1.2,2.7-2.7s-1.2-2.7-2.7-2.7h-5.6c3.9,0,7-3.2,7-7c0-3.9-3.2-7-7-7H24.5
		c-3.9,0-7,3.2-7,7c0,3.9,3.2,7,7,7h47.4c-1.5,0-2.7,1.2-2.7,2.7s1.2,2.7,2.7,2.7h4.6c-5.1,0-9.2,4.1-9.2,9.2s4.1,9.2,9.2,9.2H65.3
		c-1.5,0-2.7,1.2-2.7,2.7s1.2,2.7,2.7,2.7H32.9c-4,0-7.3,3.3-7.3,7.3s3.3,7.3,7.3,7.3h81.5c4,0,7.3-3.3,7.3-7.3s-3.3-7.3-7.3-7.3
		h-11.3c1.5,0,2.7-1.2,2.7-2.7s-1.2-2.7-2.7-2.7h88.5c5.1,0,9.2-4.1,9.2-9.2S196.7,228.7,191.6,228.7z M83.4,223.4h13.3
		c-1.5,0-2.7,1.2-2.7,2.7s1.2,2.7,2.7,2.7H83.4c1.5,0,2.7-1.2,2.7-2.7S84.9,223.4,83.4,223.4z M91.5,252.4H76.8
		c1.5,0,2.7-1.2,2.7-2.7s-1.2-2.7-2.7-2.7h14.7c-1.5,0-2.7,1.2-2.7,2.7C88.9,251.2,90.1,252.4,91.5,252.4z"/>
	<path class="st1" d="M281.3,164.3c0,5.1,4.1,9.2,9.2,9.2h101c-1.5,0-2.7,1.2-2.7,2.7s1.2,2.7,2.7,2.7h-11.3c-4,0-7.3,3.3-7.3,7.3
		s3.3,7.3,7.3,7.3H468c4,0,7.3-3.3,7.3-7.3s-3.3-7.3-7.3-7.3h-32.4c1.5,0,2.7-1.2,2.7-2.7s-1.2-2.7-2.7-2.7h-11.3
		c5.1,0,9.2-4.1,9.2-9.2c0-5.1-4.1-9.2-9.2-9.2h4.6c1.5,0,2.7-1.2,2.7-2.7s-1.2-2.7-2.7-2.7h47.4c3.9,0,7-3.2,7-7c0-3.9-3.2-7-7-7
		h-84.5c-3.9,0-7,3.2-7,7c0,3.9,3.2,7,7,7h-5.6c-1.5,0-2.7,1.2-2.7,2.7s1.2,2.7,2.7,2.7h-95.8C285.4,155.1,281.3,159.3,281.3,164.3z
		 M408.5,152.5c0,1.5,1.2,2.7,2.7,2.7h-13.3c1.5,0,2.7-1.2,2.7-2.7s-1.2-2.7-2.7-2.7h13.3C409.7,149.8,408.5,151,408.5,152.5z
		 M405.7,176.2c0-1.5-1.2-2.7-2.7-2.7h21c-1.5,0-2.7,1.2-2.7,2.7s1.2,2.7,2.7,2.7h-21C404.5,178.8,405.7,177.6,405.7,176.2z"/>
	<path class="st2" d="M230.3,134.3l-83.1,10c-3.6,0.4-6.9-2.1-7.3-5.7l-4.4-37.7c-0.4-3.6,2.1-6.9,5.7-7.3l83.1-10
		c3.6-0.4,6.9,2.1,7.3,5.7L236,127C236.4,130.6,233.9,133.9,230.3,134.3z"/>
	<g>
		<path class="st1" d="M203.4,152.4h89.7c2.8,0,5,2.2,5,5v152.1c0,2.8-2.2,5-5,5h-115c-2.8,0-5-2.2-5-5V182.7"/>
		<path class="st3" d="M284.4,262.9H184.1c-0.3,0-0.5-0.2-0.5-0.5v-0.2c0-0.3,0.2-0.5,0.5-0.5h100.3c0.3,0,0.5,0.2,0.5,0.5v0.2
			C284.9,262.7,284.7,262.9,284.4,262.9z"/>
		<path class="st3" d="M284.4,277.1H184.1c-0.3,0-0.5-0.2-0.5-0.5v-0.2c0-0.3,0.2-0.5,0.5-0.5h100.3c0.3,0,0.5,0.2,0.5,0.5v0.2
			C284.9,276.8,284.7,277.1,284.4,277.1z"/>
		<path class="st3" d="M234.4,291.3h-50.3c-0.3,0-0.5-0.2-0.5-0.5v-0.2c0-0.3,0.2-0.5,0.5-0.5h50.3c0.3,0,0.5,0.2,0.5,0.5v0.2
			C234.9,291,234.7,291.3,234.4,291.3z"/>
		<path class="st4" d="M261.5,242h-54c-0.3,0-0.5-0.2-0.5-0.5v-0.6c0-0.3,0.2-0.5,0.5-0.5h54c0.3,0,0.5,0.2,0.5,0.5v0.6
			C262,241.8,261.8,242,261.5,242z"/>
		<path class="st5" d="M256.1,211.8L256.1,211.8c-4.3-4.6-11.8-7.6-20.3-7.6c-8.9,0-16.6,3.3-20.8,8.1l0,0l0,0l0,0
			c-0.1,0.1-0.1,0.2-0.1,0.3c0,0.3,0.2,0.5,0.5,0.5c0.2,0,0.3-0.1,0.4-0.2l0,0c4.3-4.4,11.6-7.2,20-7.2c8,0,15.1,2.7,19.5,6.7l0,0
			c0.2,0.2,0.6,0.2,0.8,0C256.4,212.4,256.4,212.1,256.1,211.8z"/>
		<circle class="st5" cx="260.4" cy="196.2" r="3.1"/>
		<circle class="st5" cx="210.1" cy="196.2" r="3.1"/>
		<path class="st5" d="M171.9,182.7v127.1c0,3.2,2.6,5.9,5.9,5.9h115.7c3.2,0,5.9-2.6,5.9-5.9V157.1c0-3.2-2.6-5.9-5.9-5.9h-90.1
			v1.2h89.7c2.8,0,5,2.2,5,5v152.1c0,2.8-2.2,5-5,5h-115c-2.8,0-5-2.2-5-5V182.7H171.9z"/>
		<path class="st1" d="M171.9,181.5v1.2h25.6c3.2,0,5.9-2.6,5.9-5.9v-25.6h-1.2L171.9,181.5z"/>
		<path class="st5" d="M202.1,151.2v25.3c0,2.8-2.2,5-5,5h-25.2v1.2h25.6c3.2,0,5.9-2.6,5.9-5.9v-25.6H202.1z"/>
		<polygon class="st5" points="172.7,182.4 203.1,152.1 202.2,151.2 171.9,181.5 		"/>
	</g>
	<path class="st5" d="M230.6,329.3h-0.3c-0.3,0-0.6-0.3-0.6-0.6v-13.2c0-0.3,0.3-0.6,0.6-0.6h0.3c0.3,0,0.6,0.3,0.6,0.6v13.2
		C231.2,329,230.9,329.3,230.6,329.3z"/>
	<path class="st5" d="M241.1,329.3h-0.3c-0.3,0-0.6-0.3-0.6-0.6v-13.2c0-0.3,0.3-0.6,0.6-0.6h0.3c0.3,0,0.6,0.3,0.6,0.6v13.2
		C241.7,329,241.4,329.3,241.1,329.3z"/>
	<path class="st5" d="M298.5,214.3L298.5,214.3c0.2,4.8,3,10.3,7.9,14.5c5.1,4.4,11.3,6.3,16.1,5.5l0,0l0,0l0,0
		c0.1,0,0.2-0.1,0.2-0.1c0.2-0.2,0.1-0.4,0-0.6c-0.1-0.1-0.2-0.1-0.3-0.1l0,0c-4.7,0.4-10.4-1.5-15.2-5.6c-4.6-4-7.4-9-7.8-13.6l0,0
		c0-0.2-0.2-0.4-0.5-0.4C298.6,213.8,298.5,214,298.5,214.3z"/>
	<path class="st5" d="M143,190.9L143,190.9c0.9,5.1,4.9,11.3,11,16.6c6.4,5.5,13.4,8.4,18.6,8.4l0,0l0,0l0,0c0.1,0,0.2,0,0.2-0.1
		c0.1-0.2,0.1-0.4-0.1-0.6c-0.1-0.1-0.3-0.2-0.4-0.1l0,0c-5.1-0.3-11.7-3.2-17.7-8.3c-5.7-4.9-9.6-10.7-10.8-15.6l0,0
		c-0.1-0.3-0.3-0.5-0.6-0.5S143,190.6,143,190.9z"/>
	<path class="st5" d="M233.6,124.7l-4.8-39.1c-0.4-3.6-3.7-6.2-7.3-5.7L137.6,90c-3.6,0.4-6.2,3.7-5.7,7.3l4.8,39.1
		c0.4,3.6,3.7,6.2,7.3,5.7l83.9-10.2C231.4,131.5,234,128.3,233.6,124.7z M228,130.8l-84.4,10.3c-2.8,0.3-5.3-1.6-5.6-4.4l-4.9-39.9
		c-0.3-2.8,1.6-5.3,4.4-5.6l84.4-10.3c2.8-0.3,5.3,1.6,5.6,4.4l4.9,39.9C232.7,128,230.7,130.5,228,130.8z"/>
	<polygon class="st5" points="136,131.1 145.8,215.1 147,215.1 137.2,130.6 	"/>
</g>
<g class="st6">
	<path class="st5" d="M151.5,125.2c-1.8-0.7-3.2-1.7-4.4-3.2s-1.8-3.2-2.1-5.1c-0.2-2,0-3.8,0.7-5.5s1.9-3.1,3.4-4.2
		c1.5-1.1,3.4-1.8,5.4-2c2.1-0.3,4,0,5.8,0.6c1.8,0.7,3.2,1.8,4.4,3.2c1.1,1.4,1.8,3.1,2.1,5.1c0.2,2,0,3.8-0.8,5.5
		s-1.9,3.1-3.4,4.2c-1.5,1.1-3.3,1.8-5.4,2C155.2,126.1,153.3,125.9,151.5,125.2z M159.9,120.7c0.9-0.7,1.5-1.5,2-2.5
		c0.4-1,0.6-2.2,0.4-3.4c-0.2-1.2-0.6-2.3-1.2-3.2c-0.7-0.9-1.5-1.6-2.5-2s-2.1-0.6-3.3-0.4c-1.2,0.1-2.2,0.6-3.1,1.2
		c-0.9,0.7-1.5,1.5-2,2.5c-0.4,1-0.6,2.2-0.4,3.4c0.2,1.2,0.6,2.3,1.2,3.2c0.7,0.9,1.5,1.6,2.5,2s2.1,0.6,3.3,0.4
		C158,121.8,159,121.3,159.9,120.7z"/>
	<path class="st5" d="M174.2,122.6c-1.4-0.5-2.5-1.3-3.4-2.4c-0.9-1.1-1.4-2.4-1.6-3.9c-0.2-1.5,0-2.9,0.6-4.2s1.5-2.4,2.7-3.2
		s2.6-1.4,4.2-1.6c1.6-0.2,3.1,0,4.5,0.5s2.5,1.3,3.3,2.4c0.9,1.1,1.4,2.4,1.6,3.9c0.2,1.5,0,2.9-0.6,4.2s-1.5,2.3-2.6,3.2
		c-1.2,0.8-2.6,1.4-4.2,1.6C177,123.2,175.5,123.1,174.2,122.6z M180.8,117.9c0.6-0.9,0.9-1.9,0.7-3.2s-0.7-2.3-1.5-3
		s-1.8-0.9-3-0.8c-1.1,0.1-2,0.6-2.7,1.5c-0.6,0.9-0.9,1.9-0.7,3.2s0.7,2.3,1.5,3s1.8,0.9,3,0.8
		C179.3,119.2,180.2,118.7,180.8,117.9z"/>
	<path class="st5" d="M201.1,105.2c1.3,0.5,2.3,1.3,3.1,2.4c0.8,1.1,1.3,2.4,1.5,4s0,3-0.5,4.3s-1.3,2.3-2.4,3.1
		c-1.1,0.8-2.3,1.3-3.8,1.5c-2,0.2-3.6-0.2-4.8-1.3l0.9,7.2l-4.4,0.6l-2.7-21l4.2-0.5l0.2,1.8c0.9-1.5,2.5-2.3,4.6-2.6
		C198.5,104.5,199.8,104.6,201.1,105.2z M200.5,115.4c0.6-0.9,0.9-1.9,0.7-3.2s-0.7-2.3-1.5-3s-1.8-0.9-3-0.8
		c-1.1,0.1-2,0.6-2.7,1.5c-0.6,0.9-0.9,1.9-0.7,3.2s0.7,2.3,1.5,3s1.8,0.9,3,0.8S199.9,116.3,200.5,115.4z"/>
	<path class="st5" d="M211,118.5c-1.3-0.2-2.3-0.4-3.1-0.8l1.1-3.4c0.7,0.4,1.6,0.6,2.6,0.8s2,0.2,2.9,0.1c1.9-0.2,2.8-0.8,2.6-1.8
		c-0.1-0.4-0.4-0.7-0.9-0.8s-1.3-0.2-2.4-0.2c-1.3,0-2.3-0.1-3.2-0.3c-0.8-0.1-1.6-0.5-2.3-1c-0.7-0.6-1.1-1.4-1.2-2.6
		c-0.1-1,0-1.9,0.5-2.7s1.2-1.5,2.2-2.1s2.3-0.9,3.7-1.1c1.1-0.1,2.2-0.2,3.3-0.1c1.1,0.1,2,0.3,2.8,0.6l-1.1,3.4
		c-1.4-0.6-3-0.8-4.6-0.6c-0.9,0.1-1.6,0.3-2.1,0.7c-0.4,0.3-0.6,0.7-0.6,1.1c0.1,0.5,0.4,0.8,0.9,0.9c0.5,0.1,1.4,0.2,2.5,0.2
		c1.3,0.1,2.3,0.1,3.2,0.3s1.6,0.5,2.2,1c0.7,0.6,1.1,1.4,1.2,2.5c0.1,1-0.1,1.8-0.5,2.6c-0.5,0.8-1.2,1.5-2.3,2
		c-1,0.5-2.3,0.9-3.8,1.1C213.6,118.6,212.3,118.6,211,118.5z"/>
</g>
<g class="st6">
	<path d="M128.1,352.2h-4v-2.9h11.6v2.9h-4v10.1H128L128.1,352.2L128.1,352.2z"/>
	<path d="M147.6,356.5v5.7h-3.5V357c0-1.4-0.6-2.1-1.6-2.1c-1.1,0-2,0.7-2,2.4v4.9H137v-13.8h3.5v4.6c0.8-0.7,1.8-1.1,3-1.1
		C145.8,352,147.6,353.4,147.6,356.5z"/>
	<path d="M160.2,358.1h-7.3c0.3,1,1.2,1.6,2.5,1.6c1,0,1.6-0.3,2.3-0.9l1.9,1.9c-1,1.1-2.4,1.6-4.3,1.6c-3.6,0-5.9-2.2-5.9-5.2
		s2.4-5.2,5.5-5.2c3,0,5.4,1.9,5.4,5.2C160.2,357.5,160.2,357.8,160.2,358.1z M152.8,356.3h4.1c-0.2-1.1-1-1.7-2.1-1.7
		S153,355.2,152.8,356.3z"/>
	<path d="M168.6,352v3.2c-0.3,0-0.5-0.1-0.8-0.1c-1.4,0-2.4,0.7-2.4,2.5v4.6h-3.5v-10h3.4v1.2C166,352.5,167.1,352,168.6,352z"/>
	<path d="M180.2,358.1h-7.3c0.3,1,1.2,1.6,2.5,1.6c1,0,1.6-0.3,2.3-0.9l1.9,1.9c-1,1.1-2.4,1.6-4.3,1.6c-3.6,0-5.9-2.2-5.9-5.2
		s2.4-5.2,5.5-5.2c3,0,5.4,1.9,5.4,5.2C180.2,357.5,180.2,357.8,180.2,358.1z M172.8,356.3h4.1c-0.2-1.1-1-1.7-2.1-1.7
		S173,355.2,172.8,356.3z"/>
	<path d="M181.2,349.3h3l-0.2,5.4h-2.5L181.2,349.3z"/>
	<path d="M185.3,361.4l1.1-2.4c0.9,0.6,2.3,0.9,3.5,0.9s1.6-0.3,1.6-0.7c0-1.4-5.9,0.2-5.9-3.8c0-1.9,1.7-3.3,4.9-3.3
		c1.4,0,3,0.3,4,0.9l-1.1,2.4c-1-0.6-2-0.7-2.9-0.7c-1.2,0-1.6,0.3-1.6,0.7c0,1.4,5.9-0.1,5.9,3.9c0,1.9-1.7,3.3-5,3.3
		C188,362.4,186.3,362,185.3,361.4z"/>
	<path d="M212.3,356.5v5.7h-3.5V357c0-1.4-0.6-2.1-1.6-2.1c-1.1,0-2,0.7-2,2.4v4.9h-3.5v-10h3.4v1.1c0.8-0.8,1.9-1.3,3.2-1.3
		C210.5,352,212.3,353.4,212.3,356.5z"/>
	<path d="M214,357.2c0-3,2.4-5.2,5.7-5.2s5.7,2.2,5.7,5.2s-2.4,5.2-5.7,5.2C216.4,362.4,214,360.3,214,357.2z M221.8,357.2
		c0-1.5-0.9-2.4-2.1-2.4c-1.2,0-2.1,0.9-2.1,2.4s0.9,2.4,2.1,2.4C220.9,359.6,221.8,358.8,221.8,357.2z"/>
	<path d="M234,361.8c-0.6,0.4-1.5,0.6-2.4,0.6c-2.6,0-4.1-1.3-4.1-3.8v-3.4H226v-2.6h1.5V350h3.5v2.6h2.3v2.6H231v3.3
		c0,0.7,0.4,1.1,1.1,1.1c0.4,0,0.8-0.1,1.1-0.3L234,361.8z"/>
	<path d="M246,356.5v5.7h-3.5V357c0-1.4-0.6-2.1-1.6-2.1c-1.1,0-2,0.7-2,2.4v4.9h-3.5v-13.8h3.5v4.6c0.8-0.7,1.8-1.1,3-1.1
		C244.2,352,246,353.4,246,356.5z"/>
	<path d="M247.8,349.2c0-1.1,0.9-1.9,2.2-1.9s2.2,0.8,2.2,1.8c0,1.1-0.9,1.9-2.2,1.9S247.8,350.3,247.8,349.2z M248.2,352.2h3.5v10
		h-3.5V352.2z"/>
	<path d="M264.7,356.5v5.7h-3.5V357c0-1.4-0.6-2.1-1.6-2.1c-1.1,0-2,0.7-2,2.4v4.9H254v-10h3.4v1.1c0.8-0.8,1.9-1.3,3.2-1.3
		C262.9,352,264.7,353.4,264.7,356.5z"/>
	<path d="M277.9,352.2v8.2c0,3.8-2.2,5.6-5.9,5.6c-1.9,0-3.8-0.4-5-1.3l1.3-2.5c0.8,0.7,2.2,1.1,3.4,1.1c1.9,0,2.7-0.9,2.7-2.4v-0.3
		c-0.7,0.8-1.7,1.2-3,1.2c-2.7,0-4.9-1.9-4.9-4.9c0-2.9,2.3-4.8,4.9-4.8c1.4,0,2.5,0.4,3.2,1.4v-1.2h3.3V352.2z M274.4,356.9
		c0-1.2-0.9-2-2.2-2s-2.2,0.8-2.2,2s0.9,2.1,2.2,2.1S274.4,358.1,274.4,356.9z"/>
	<path d="M296.2,356.5v5.7h-3.5V357c0-1.4-0.6-2.1-1.7-2.1s-2,0.7-2,2.4v4.9h-3.5v-13.8h3.5v4.6c0.8-0.7,1.8-1.1,3-1.1
		C294.4,352,296.2,353.4,296.2,356.5z"/>
	<path d="M308.8,358.1h-7.3c0.3,1,1.2,1.6,2.5,1.6c1,0,1.6-0.3,2.3-0.9l1.9,1.9c-1,1.1-2.4,1.6-4.3,1.6c-3.6,0-5.9-2.2-5.9-5.2
		s2.4-5.2,5.5-5.2c3,0,5.4,1.9,5.4,5.2C308.8,357.5,308.8,357.8,308.8,358.1z M301.4,356.3h4.1c-0.2-1.1-1-1.7-2.1-1.7
		S301.6,355.2,301.4,356.3z"/>
	<path d="M317.2,352v3.2c-0.3,0-0.5-0.1-0.8-0.1c-1.4,0-2.4,0.7-2.4,2.5v4.6h-3.5v-10h3.4v1.2C314.5,352.5,315.7,352,317.2,352z"/>
	<path d="M328.8,358.1h-7.3c0.3,1,1.2,1.6,2.5,1.6c1,0,1.6-0.3,2.3-0.9l1.9,1.9c-1,1.1-2.4,1.6-4.3,1.6c-3.6,0-5.9-2.2-5.9-5.2
		s2.4-5.2,5.5-5.2c3,0,5.4,1.9,5.4,5.2C328.8,357.5,328.8,357.8,328.8,358.1z M321.4,356.3h4.1c-0.2-1.1-1-1.7-2.1-1.7
		S321.6,355.2,321.4,356.3z"/>
	<path d="M334,360.3c0,0.5-0.1,0.9-0.6,2.1l-1.2,2.7H330l0.9-3c-0.7-0.3-1.1-0.9-1.1-1.8c0-1.3,0.9-2.1,2.1-2.1
		C333.1,358.3,334,359.1,334,360.3z"/>
	<path d="M351.7,352.2l-4.3,10.5c-1.1,2.6-2.5,3.4-4.5,3.4c-1.1,0-2.2-0.4-2.9-0.9l1.2-2.5c0.4,0.4,1,0.6,1.6,0.6
		c0.7,0,1.1-0.3,1.4-0.9l-4.3-10.2h3.6l2.5,6.1l2.5-6.1H351.7z"/>
	<path d="M362.5,358.1h-7.3c0.3,1,1.2,1.6,2.5,1.6c1,0,1.6-0.3,2.3-0.9l1.9,1.9c-1,1.1-2.4,1.6-4.3,1.6c-3.6,0-5.9-2.2-5.9-5.2
		s2.4-5.2,5.5-5.2c3,0,5.4,1.9,5.4,5.2C362.6,357.5,362.5,357.8,362.5,358.1z M355.1,356.3h4.1c-0.2-1.1-1-1.7-2.1-1.7
		S355.3,355.2,355.1,356.3z"/>
	<path d="M371.1,361.8c-0.6,0.4-1.5,0.6-2.4,0.6c-2.6,0-4.1-1.3-4.1-3.8v-3.4h-1.5v-2.6h1.5V350h3.5v2.6h2.3v2.6h-2.3v3.3
		c0,0.7,0.4,1.1,1.1,1.1c0.4,0,0.8-0.1,1.1-0.3L371.1,361.8z"/>
	<path d="M372,360.3c0-1.3,0.9-2.1,2.1-2.1s2.1,0.8,2.1,2.1c0,1.2-0.9,2.1-2.1,2.1C373,362.4,372,361.6,372,360.3z"/>
</g>
</svg>
