<?xml version="1.0" encoding="UTF-8"?>
<svg width="18px" height="18px" viewBox="0 0 18 18" version="1.1" xmlns="http://www.w3.org/2000/svg" xmlns:xlink="http://www.w3.org/1999/xlink">
    <!-- Generator: Sketch 61.2 (89653) - https://sketch.com -->
    <title>icon/image/home/24</title>
    <desc>Created with Sketch.</desc>
    <defs>
        <path d="M19.5,16.5 L19.5,19.5 L16.5,19.5 L16.5,16.5 L19.5,16.5 L19.5,16.5 Z M20.25,15 L15.75,15 C15.3357864,15 15,15.3357864 15,15.75 L15,20.25 C15,20.6642136 15.3357864,21 15.75,21 L20.25,21 C20.6642136,21 21,20.6642136 21,20.25 L21,15.75 C21,15.3357864 20.6642136,15 20.25,15 Z M19.5,9 L19.5,12 L16.5,12 L16.5,9 L19.5,9 L19.5,9 Z M20.25,7.5 L15.75,7.5 C15.3357864,7.5 15,7.83578644 15,8.25 L15,12.75 C15,13.1642136 15.3357864,13.5 15.75,13.5 L20.25,13.5 C20.6642136,13.5 21,13.1642136 21,12.75 L21,8.25 C21,7.83578644 20.6642136,7.5 20.25,7.5 Z M12,16.5 L12,19.5 L9,19.5 L9,16.5 L12,16.5 L12,16.5 Z M12.75,15 L8.25,15 C7.83578644,15 7.5,15.3357864 7.5,15.75 L7.5,20.25 C7.5,20.6642136 7.83578644,21 8.25,21 L12.75,21 C13.1642136,21 13.5,20.6642136 13.5,20.25 L13.5,15.75 C13.5,15.3357864 13.1642136,15 12.75,15 Z M12,4.5 L12,12 L4.5,12 L4.5,4.5 L12,4.5 L12,4.5 Z M12,3 L4.5,3 C3.67157288,3 3,3.67157288 3,4.5 L3,12 C3,12.8284271 3.67157288,13.5 4.5,13.5 L12,13.5 C12.8284271,13.5 13.5,12.8284271 13.5,12 L13.5,4.5 C13.5,3.67157288 12.8284271,3 12,3 Z" id="path-1"></path>
    </defs>
    <g id="Page-1" stroke="none" stroke-width="1" fill="none" fill-rule="evenodd">
        <g id="5" transform="translate(-32.000000, -122.000000)">
            <g id="Nav">
                <g id="icon/file/application/24">
                    <g transform="translate(29.000000, 119.000000)">
                        <mask id="mask-2" fill="white">
                            <use xlink:href="#path-1"></use>
                        </mask>
                        <use id="icon-color" fill="#717171" fill-rule="evenodd" xlink:href="#path-1"></use>
                    </g>
                </g>
            </g>
        </g>
    </g>
</svg>