<?xml version="1.0" encoding="UTF-8"?>
<svg width="20px" height="23px" viewBox="0 0 20 23" version="1.1" xmlns="http://www.w3.org/2000/svg" xmlns:xlink="http://www.w3.org/1999/xlink">
    <!-- Generator: Sketch 61.2 (89653) - https://sketch.com -->
    <title>icon/toggle/notification/24</title>
    <desc>Created with Sketch.</desc>
    <defs>
        <path d="M21.5325,15.2175 L19.5,13.1925 L19.5,9.75 C19.5000484,5.89826005 16.5824329,2.67267399 12.75,2.2875 L12.75,0.75 L11.25,0.75 L11.25,2.2875 C7.41756714,2.67267399 4.49995161,5.89826005 4.5,9.75 L4.5,13.1925 L2.4675,15.2175 C2.32711011,15.3590391 2.24884743,15.5506478 2.24998745,15.75 L2.24998745,18 C2.24998745,18.4142136 2.58578644,18.75 3,18.75 L8.25,18.75 C8.25,20.8210678 9.92893219,22.5 12,22.5 C14.0710678,22.5 15.75,20.8210678 15.75,18.75 L21,18.75 C21.4142136,18.75 21.7500126,18.4142136 21.7500126,18 L21.7500126,15.75 C21.7511526,15.5506478 21.6728899,15.3590391 21.5325,15.2175 Z M12,21 C10.7573593,21 9.75,19.9926407 9.75,18.75 L14.25,18.75 C14.25,19.9926407 13.2426407,21 12,21 L12,21 Z M20.25,17.25 L3.75,17.25 L3.75,16.0575 L5.7825,14.025 C5.92105812,13.8853045 5.99917153,13.6967549 6,13.5 L6,9.75 C6,6.4362915 8.6862915,3.75 12,3.75 C15.3137085,3.75 18,6.4362915 18,9.75 L18,13.5 C17.9988474,13.6993522 18.0771101,13.8909609 18.2175,14.0325 L20.25,16.0575 L20.25,17.25 Z" id="path-1"></path>
    </defs>
    <g id="Symbols" stroke="none" stroke-width="1" fill="none" fill-rule="evenodd">
        <g id="main-header" transform="translate(-1287.000000, -24.000000)">
            <g id="icon/toggle/notification/24" transform="translate(1285.000000, 24.000000)">
                <mask id="mask-2" fill="white">
                    <use xlink:href="#path-1"></use>
                </mask>
                <use id="icon-color" fill="#717171" fill-rule="evenodd" xlink:href="#path-1"></use>
            </g>
        </g>
    </g>
</svg>